<?xml version="1.0" standalone="no"?>
<!DOCTYPE svg PUBLIC "-//W3C//DTD SVG 20010904//EN"
 "http://www.w3.org/TR/2001/REC-SVG-20010904/DTD/svg10.dtd">
<svg version="1.0" xmlns="http://www.w3.org/2000/svg"
 width="292.000000pt" height="296.000000pt" viewBox="0 0 292.000000 296.000000"
 preserveAspectRatio="xMidYMid meet">
<metadata>
Created by potrace 1.10, written by Peter Selinger 2001-2011
</metadata>
<g transform="translate(0.000000,296.000000) scale(0.100000,-0.100000)"
fill="#000000" stroke="none">
<path d="M1135 2864 c-38 -8 -113 -36 -165 -61 -79 -38 -108 -59 -181 -132
-71 -72 -94 -103 -132 -180 l-45 -93 -79 -27 c-211 -73 -363 -228 -440 -447
-24 -70 -27 -94 -28 -209 0 -109 4 -142 23 -205 26 -81 73 -173 120 -233 l30
-37 -15 -58 c-21 -77 -21 -240 0 -322 9 -36 38 -108 64 -160 82 -164 226 -286
408 -347 71 -24 96 -27 220 -27 l140 -1 69 -57 c133 -110 273 -161 446 -161
126 0 204 18 315 73 150 74 259 186 327 336 l31 70 72 23 c200 62 378 238 445
440 75 226 36 461 -110 657 l-31 40 16 65 c34 147 11 333 -60 467 -75 143
-174 240 -320 313 -109 54 -202 72 -340 67 l-110 -5 -52 46 c-74 65 -166 118
-258 147 -103 33 -257 41 -360 18z m256 -178 c82 -18 234 -94 218 -110 -2 -2
-130 -77 -284 -165 -154 -89 -290 -173 -302 -187 l-23 -25 0 -404 0 -403 -117
68 -118 68 -3 334 c-2 211 1 357 8 398 35 205 183 368 380 419 90 24 153 25
241 7z m682 -221 c190 -49 338 -199 382 -387 16 -71 20 -184 6 -193 -5 -3
-138 69 -296 160 -202 117 -295 165 -317 165 -22 0 -127 -56 -368 -195 -186
-107 -340 -195 -344 -195 -3 0 -6 60 -6 134 l0 134 278 160 c152 88 296 169
320 181 99 50 237 64 345 36z m-1493 -616 l0 -341 28 -26 c15 -15 174 -112
355 -215 180 -104 327 -192 327 -196 0 -9 -212 -131 -227 -131 -13 0 -543 305
-609 351 -103 70 -185 208 -206 342 -24 158 29 322 140 436 54 54 152 121 180
121 9 0 12 -75 12 -341z m1544 11 c147 -85 291 -175 319 -200 187 -166 226
-456 88 -666 -21 -32 -56 -76 -77 -96 -37 -35 -149 -108 -165 -108 -5 0 -9
155 -11 345 l-3 345 -25 23 c-14 13 -106 70 -205 127 -329 189 -470 271 -477
278 -4 4 46 37 110 74 l116 67 31 -17 c16 -10 151 -87 299 -172z m-505 -131
l111 -63 -2 -175 -3 -175 -140 -82 c-77 -45 -146 -83 -153 -83 -6 -1 -77 36
-157 82 l-145 82 0 176 0 176 108 61 c59 34 125 73 147 86 l40 25 42 -23 c23
-13 91 -52 152 -87z m379 -219 l92 -52 0 -367 c0 -400 -2 -416 -60 -531 -132
-261 -480 -353 -733 -194 l-59 37 89 51 c48 28 182 106 297 171 175 101 211
125 222 152 11 26 14 114 14 424 l0 391 23 -14 c12 -9 64 -39 115 -68z m-268
-477 l-1 -138 -282 -162 c-155 -89 -307 -174 -338 -188 -187 -85 -419 -38
-570 115 -107 108 -153 224 -147 373 l3 77 295 -170 c162 -94 305 -170 319
-170 22 0 169 82 586 324 72 42 131 76 133 76 1 0 2 -62 2 -137z"/>
</g>
</svg>
